# xmcd CD database file
#
# Track frame offsets:
#	150
#	16122
#	26395
#	31035
#	89455
#	125152
#	129370
#	132677
#	136870
#	168322
#	174712
#	189925
#	204290
#	210277
#	219810
#	223752
#	230225
#	234792
#
# Disc length: 3261 seconds
#
# Revision: 3
# Processed by: cddbd v1.5.2PL0 Copyright (c) Steve Scherf et al.
# Submitted via: CDex 1.51
#
DISCID=f00cbb12
DTITLE=Leadbelly - Library of Congress Recordings  Vol 6 - Go Down Old Hannah
DYEAR=1994
DGENRE=Folk
TTITLE0=T.B. Blues
TTITLE1=How Long?
TTITLE2=When the Train Comes Along
TTITLE3=Monologue on Square Dances or Sookey Jumps
TTITLE4=Monologue On The Blues
TTITLE5=Amazing Grace
TTITLE6=Old Time Religion
TTITLE7=Stand Your Test In Judgement
TTITLE8=Christmas (monologue)
TTITLE9=John Henry
TTITLE10=John Hardy
TTITLE11=Go Down Old Hannah
TTITLE12=Oh, Something On My Mind
TTITLE13=How Long?
TTITLE14=Swing Low Sweet Chariot
TTITLE15=Ain't Gonna Study War No More
TTITLE16=Join The Band
TTITLE17=Prayer
EXTD=YEAR: 1994
EXTT0=
EXTT1=
EXTT2=
EXTT3=
EXTT4=
EXTT5=
EXTT6=
EXTT7=
EXTT8=
EXTT9=
EXTT10=
EXTT11=
EXTT12=
EXTT13=
EXTT14=
EXTT15=
EXTT16=
EXTT17=
PLAYORDER=
